<svg id="Layer_1" data-name="Layer 1" xmlns="http://www.w3.org/2000/svg" viewBox="0 0 1982.3 512.01"><defs><style>.cls-1{fill:#ffd43b;}.cls-2{font-size:463.59px;fill:#fff;font-family:Coolvetica-Regular, Coolvetica;}</style></defs><path class="cls-1" d="M-140-1123.62a23.9,23.9,0,0,0-33.9,0l-48.1,48a24,24,0,0,0-5.5,8.5l-15.4,41-77.5,77.6c-45.1-29.4-99.3-30.2-131,1.6a80.25,80.25,0,0,0-21.4,39.6c-3.7,16.6-19.1,30.7-36.1,31.6-25.6,1.3-49.3,10.7-67.3,28.6-44.8,44.8-36.4,125.8,18.7,180.9s136.1,63.6,180.9,18.8c17.9-17.9,27.4-41.7,28.6-67.3.9-17,15-32.3,31.6-36.1a81.05,81.05,0,0,0,39.6-21.4c31.8-31.8,31-85.9,1.6-131l77.6-77.6,41-15.4a24,24,0,0,0,8.5-5.5l48-48a23.9,23.9,0,0,0,0-33.9Zm-257,249a48,48,0,0,1,48,48,48,48,0,0,1-48,48,48,48,0,0,1-48-48A48,48,0,0,1-397-874.62Z" transform="translate(605 1130.67)"/><text class="cls-2" transform="translate(614.73 394.85)">Jammy</text></svg>